<?xml version="1.0" encoding="UTF-8" standalone="no"?>
<!-- Created with Inkscape (http://www.inkscape.org/) -->

<svg
   width="199.15227mm"
   height="132.94266mm"
   viewBox="0 0 199.15227 132.94266"
   version="1.1"
   id="svg5"
   inkscape:version="1.1.2 (08b2f3d93c, 2022-04-05)"
   sodipodi:docname="JB.svg"
   xmlns:inkscape="http://www.inkscape.org/namespaces/inkscape"
   xmlns:sodipodi="http://sodipodi.sourceforge.net/DTD/sodipodi-0.dtd"
   xmlns="http://www.w3.org/2000/svg"
   xmlns:svg="http://www.w3.org/2000/svg">
  <sodipodi:namedview
     id="namedview7"
     pagecolor="#ffffff"
     bordercolor="#666666"
     borderopacity="1.0"
     inkscape:pageshadow="2"
     inkscape:pageopacity="0.0"
     inkscape:pagecheckerboard="0"
     inkscape:document-units="mm"
     showgrid="false"
     inkscape:zoom="0.75187991"
     inkscape:cx="410.30488"
     inkscape:cy="411.63488"
     inkscape:window-width="1870"
     inkscape:window-height="1016"
     inkscape:window-x="50"
     inkscape:window-y="27"
     inkscape:window-maximized="1"
     inkscape:current-layer="layer1"
     inkscape:snap-object-midpoints="false"
     inkscape:snap-center="false"
     inkscape:snap-page="false"
     inkscape:snap-to-guides="false"
     fit-margin-top="0"
     fit-margin-left="0"
     fit-margin-right="0"
     fit-margin-bottom="0" />
  <defs
     id="defs2" />
  <g
     inkscape:label="Capa 1"
     inkscape:groupmode="layer"
     id="layer1"
     transform="translate(-8.3764263,-5.4634264)">
    <g
       aria-label="JB"
       id="text2079"
       style="font-weight:bold;font-size:10.5833px;line-height:1.25;font-family:monospace;-inkscape-font-specification:'monospace, Bold';stroke-width:0.264583"
       transform="matrix(16.880613,0,0,16.880613,-1163.2368,-967.52194)">
      <path
         d="M 69.405846,64.982418 V 63.21509 q 0.444416,0.454751 0.945676,0.692462 0.506428,0.23771 1.018023,0.23771 0.599444,0 0.878496,-0.299722 0.279052,-0.299722 0.279052,-0.956011 v -3.89639 H 70.66158 v -1.343583 h 3.389963 v 5.239973 q 0,1.410762 -0.594277,2.020542 -0.58911,0.604613 -1.948196,0.604613 -0.490924,0 -1.028357,-0.134359 -0.532266,-0.134358 -1.074867,-0.397907 z"
         id="path9655" />
      <path
         d="m 77.332986,61.861171 v 2.284091 h 1.012854 q 0.728636,0 1.018023,-0.248046 0.294555,-0.248046 0.294555,-0.862993 0,-0.625283 -0.30489,-0.899167 -0.30489,-0.273885 -1.007688,-0.273885 z m 0,-3.007558 v 1.793166 h 1.012854 q 0.578775,0 0.821653,-0.206705 0.248046,-0.206705 0.248046,-0.682127 0,-0.475421 -0.253213,-0.687294 -0.248047,-0.21704 -0.816486,-0.21704 z M 75.860212,57.63922 h 2.485628 q 1.28674,0 1.932693,0.490925 0.651121,0.485757 0.651121,1.457271 0,0.744138 -0.382404,1.162716 -0.382405,0.418577 -1.121376,0.485757 0.883665,0.08785 1.328081,0.594277 0.449583,0.506427 0.449583,1.415929 0,1.116208 -0.671791,1.617468 -0.671792,0.501259 -2.185907,0.501259 h -2.485628 z"
         id="path9657" />
    </g>
  </g>
</svg>
